<svg width="149" height="113" viewBox="0 0 149 113" fill="none" xmlns="http://www.w3.org/2000/svg" xmlns:c2pa="http://c2pa.org/manifest"><metadata><c2pa:manifest>AAAWgmp1bWIAAAAeanVtZGMycGEAEQAQgAAAqgA4m3EDYzJwYQAAABZcanVtYgAAAEdqdW1kYzJtYQARABCAAACqADibcQN1cm46YzJwYTo0NzJhYTFhZS02YWM5LTQwNTUtOWIyZC00MzQzM2UxY2VlZWYAAAADl2p1bWIAAAApanVtZGMyYXMAEQAQgAAAqgA4m3EDYzJwYS5hc3NlcnRpb25zAAAAALxqdW1iAAAARGp1bWRjYm9yABEAEIAAAKoAOJtxE2MycGEuaW5ncmVkaWVudC52MwAAAAAYYzJzaGui3XY5ieLenvr9IfE2Y+UAAABwY2JvcqNpZGM6Zm9ybWF0bWltYWdlL3N2Zyt4bWxqaW5zdGFuY2VJRHgseG1wOmlpZDo3Y2I3NDRkZC02NDUyLTQyN2YtOTRhMy1jZjUwMzc5ZTBmMWVscmVsYXRpb25zaGlwaHBhcmVudE9mAAAB4mp1bWIAAABBanVtZGNib3IAEQAQgAAAqgA4m3ETYzJwYS5hY3Rpb25zLnYyAAAAABhjMnNofpgfaL5DTMZY91u8DIh1xgAAAZljYm9yomdhY3Rpb25zgqJmYWN0aW9ua2MycGEub3BlbmVkanBhcmFtZXRlcnOha2luZ3JlZGllbnRzgaJjdXJseC1zZWxmI2p1bWJmPWMycGEuYXNzZXJ0aW9ucy9jMnBhLmluZ3JlZGllbnQudjNkaGFzaFggSsdEUvhzpsn1MXH2SPDXQN2KJXHhIFpbmfGRVzdgdsWkZmFjdGlvbngdY29tLmFudGhyb3BpYy5jbGF1ZGUucHJvdmlkZWRqcGFyYW1ldGVyc6F4H2NvbS5hbnRocm9waWMub3JpZ2luLWNvbmZpZGVuY2VndW5rbm93bmtkZXNjcmlwdGlvbnhmQ2xhdWRlIHByb3ZpZGVkIHRoaXMgZmlsZSBhdCB0aGUgcmVxdWVzdCBvZiBhIHVzZXIgYW5kIG1heSBoYXZlIGNyZWF0ZWQgb3IgbW9kaWZpZWQgdGhlIGZpbGUgY29udGVudHMubXNvZnR3YXJlQWdlbnShZG5hbWVmQ2xhdWRlcmFsbEFjdGlvbnNJbmNsdWRlZPUAAADIanVtYgAAAEBqdW1kY2JvcgARABCAAACqADibcRNjMnBhLmhhc2guZGF0YQAAAAAYYzJzaCLiMVYg270qAPmgE4kN9bAAAACAY2JvcqVjYWxnZnNoYTI1NmNwYWRNAAAAAAAAAAAAAAAAAGRoYXNoWCCvebbqB0A5Mk6x8yrxWtt9ae2kQplibJHabZeckhR9gWRuYW1lbmp1bWJmIG1hbmlmZXN0amV4Y2x1c2lvbnOBomVzdGFydBiiZmxlbmd0aBkeBAAAAj5qdW1iAAAAJ2p1bWRjMmNsABEAEIAAAKoAOJtxA2MycGEuY2xhaW0udjIAAAACD2Nib3KlY2FsZ2ZzaGEyNTZpc2lnbmF0dXJleE1zZWxmI2p1bWJmPS9jMnBhL3VybjpjMnBhOjQ3MmFhMWFlLTZhYzktNDA1NS05YjJkLTQzNDMzZTFjZWVlZi9jMnBhLnNpZ25hdHVyZWppbnN0YW5jZUlEeCx4bXA6aWlkOmIzZTg5NjgwLTZmZTUtNGU5MC1hYTQwLTVkMGZmN2M4NWU0NnJjcmVhdGVkX2Fzc2VydGlvbnODomN1cmx4LXNlbGYjanVtYmY9YzJwYS5hc3NlcnRpb25zL2MycGEuaW5ncmVkaWVudC52M2RoYXNoWCBKx0RS+HOmyfUxcfZI8NdA3YolceEgWluZ8ZFXN2B2xaJjdXJseCpzZWxmI2p1bWJmPWMycGEuYXNzZXJ0aW9ucy9jMnBhLmFjdGlvbnMudjJkaGFzaFggeskr0cFxcG26NTSiJuap80VvMHFqWXfV8iZ1FGQqX/KiY3VybHgpc2VsZiNqdW1iZj1jMnBhLmFzc2VydGlvbnMvYzJwYS5oYXNoLmRhdGFkaGFzaFggk7YZbdjqMmFqROUtp0vZWK7yxuLvmeGzGH5R2easD9l0Y2xhaW1fZ2VuZXJhdG9yX2luZm+jZG5hbWVvQW50aHJvcGljIEZpbGVzZ3ZlcnNpb25lMS4wLjBrc3BlY1ZlcnNpb25lMi40LjAAABA4anVtYgAAAChqdW1kYzJjcwARABCAAACqADibcQNjMnBhLnNpZ25hdHVyZQAAABAIY2JvctKEWQISogEmGCFZAgowggIGMIIBjaADAgECAhRA5aAK7sI50L64g/oGQgU9Z1UTADAKBggqhkjOPQQDAzBJMRcwFQYDVQQKEw5BbnRocm9waWMsIFBCQzEuMCwGA1UEAxMlQW50aHJvcGljIENvbnRlbnQgQ3JlZGVudGlhbHMgUm9vdCBDQTAeFw0yNjA4MDcxODQzNTZaFw0yODA4MDYxOTQzNTZaMEQxFzAVBgNVBAoTDkFudGhyb3BpYywgUEJDMSkwJwYDVQQDEyBBbnRocm9waWMgQ2xhdWRlIENvbnRlbnQgU2lnbmluZzBZMBMGByqGSM49AgEGCCqGSM49AwEHA0IABJh6CmvLUBgFFNU0vUKlOVtE6djd17L5SuwX0LemFisBM3dkd/3cyjxFA3Qo5S46fX0/ihY0VZ7mfb9KF703t5OjWDBWMA4GA1UdDwEB/wQEAwIHgDAVBgNVHSUEDjAMBgorBgEEAYPoXgIBMAwGA1UdEwEB/wQCMAAwHwYDVR0jBBgwFoAUzlHiBIFOZFsj+OPEz5o+nMHXXMIwCgYIKoZIzj0EAwMDZwAwZAIwMXMdFJ4BetLLVY7ORuE9noqbbAZOZn/aArXyTwFAZfKrPzxF2vPoJNf1+UCdg1XGAjBwX1zd9WGqYkqmL5SFqw1QySjr1zJfpJM9+1rdDwSPLMOPOjKuiXjoU/pUUeG9RwmhY3BhZFkNngAAAAAAAAAAAAAAAAAAAAAAAAAAAAAAAAAAAAAAAAAAAAAAAAAAAAAAAAAAAAAAAAAAAAAAAAAAAAAAAAAAAAAAAAAAAAAAAAAAAAAAAAAAAAAAAAAAAAAAAAAAAAAAAAAAAAAAAAAAAAAAAAAAAAAAAAAAAAAAAAAAAAAAAAAAAAAAAAAAAAAAAAAAAAAAAAAAAAAAAAAAAAAAAAAAAAAAAAAAAAAAAAAAAAAAAAAAAAAAAAAAAAAAAAAAAAAAAAAAAAAAAAAAAAAAAAAAAAAAAAAAAAAAAAAAAAAAAAAAAAAAAAAAAAAAAAAAAAAAAAAAAAAAAAAAAAAAAAAAAAAAAAAAAAAAAAAAAAAAAAAAAAAAAAAAAAAAAAAAAAAAAAAAAAAAAAAAAAAAAAAAAAAAAAAAAAAAAAAAAAAAAAAAAAAAAAAAAAAAAAAAAAAAAAAAAAAAAAAAAAAAAAAAAAAAAAAAAAAAAAAAAAAAAAAAAAAAAAAAAAAAAAAAAAAAAAAAAAAAAAAAAAAAAAAAAAAAAAAAAAAAAAAAAAAAAAAAAAAAAAAAAAAAAAAAAAAAAAAAAAAAAAAAAAAAAAAAAAAAAAAAAAAAAAAAAAAAAAAAAAAAAAAAAAAAAAAAAAAAAAAAAAAAAAAAAAAAAAAAAAAAAAAAAAAAAAAAAAAAAAAAAAAAAAAAAAAAAAAAAAAAAAAAAAAAAAAAAAAAAAAAAAAAAAAAAAAAAAAAAAAAAAAAAAAAAAAAAAAAAAAAAAAAAAAAAAAAAAAAAAAAAAAAAAAAAAAAAAAAAAAAAAAAAAAAAAAAAAAAAAAAAAAAAAAAAAAAAAAAAAAAAAAAAAAAAAAAAAAAAAAAAAAAAAAAAAAAAAAAAAAAAAAAAAAAAAAAAAAAAAAAAAAAAAAAAAAAAAAAAAAAAAAAAAAAAAAAAAAAAAAAAAAAAAAAAAAAAAAAAAAAAAAAAAAAAAAAAAAAAAAAAAAAAAAAAAAAAAAAAAAAAAAAAAAAAAAAAAAAAAAAAAAAAAAAAAAAAAAAAAAAAAAAAAAAAAAAAAAAAAAAAAAAAAAAAAAAAAAAAAAAAAAAAAAAAAAAAAAAAAAAAAAAAAAAAAAAAAAAAAAAAAAAAAAAAAAAAAAAAAAAAAAAAAAAAAAAAAAAAAAAAAAAAAAAAAAAAAAAAAAAAAAAAAAAAAAAAAAAAAAAAAAAAAAAAAAAAAAAAAAAAAAAAAAAAAAAAAAAAAAAAAAAAAAAAAAAAAAAAAAAAAAAAAAAAAAAAAAAAAAAAAAAAAAAAAAAAAAAAAAAAAAAAAAAAAAAAAAAAAAAAAAAAAAAAAAAAAAAAAAAAAAAAAAAAAAAAAAAAAAAAAAAAAAAAAAAAAAAAAAAAAAAAAAAAAAAAAAAAAAAAAAAAAAAAAAAAAAAAAAAAAAAAAAAAAAAAAAAAAAAAAAAAAAAAAAAAAAAAAAAAAAAAAAAAAAAAAAAAAAAAAAAAAAAAAAAAAAAAAAAAAAAAAAAAAAAAAAAAAAAAAAAAAAAAAAAAAAAAAAAAAAAAAAAAAAAAAAAAAAAAAAAAAAAAAAAAAAAAAAAAAAAAAAAAAAAAAAAAAAAAAAAAAAAAAAAAAAAAAAAAAAAAAAAAAAAAAAAAAAAAAAAAAAAAAAAAAAAAAAAAAAAAAAAAAAAAAAAAAAAAAAAAAAAAAAAAAAAAAAAAAAAAAAAAAAAAAAAAAAAAAAAAAAAAAAAAAAAAAAAAAAAAAAAAAAAAAAAAAAAAAAAAAAAAAAAAAAAAAAAAAAAAAAAAAAAAAAAAAAAAAAAAAAAAAAAAAAAAAAAAAAAAAAAAAAAAAAAAAAAAAAAAAAAAAAAAAAAAAAAAAAAAAAAAAAAAAAAAAAAAAAAAAAAAAAAAAAAAAAAAAAAAAAAAAAAAAAAAAAAAAAAAAAAAAAAAAAAAAAAAAAAAAAAAAAAAAAAAAAAAAAAAAAAAAAAAAAAAAAAAAAAAAAAAAAAAAAAAAAAAAAAAAAAAAAAAAAAAAAAAAAAAAAAAAAAAAAAAAAAAAAAAAAAAAAAAAAAAAAAAAAAAAAAAAAAAAAAAAAAAAAAAAAAAAAAAAAAAAAAAAAAAAAAAAAAAAAAAAAAAAAAAAAAAAAAAAAAAAAAAAAAAAAAAAAAAAAAAAAAAAAAAAAAAAAAAAAAAAAAAAAAAAAAAAAAAAAAAAAAAAAAAAAAAAAAAAAAAAAAAAAAAAAAAAAAAAAAAAAAAAAAAAAAAAAAAAAAAAAAAAAAAAAAAAAAAAAAAAAAAAAAAAAAAAAAAAAAAAAAAAAAAAAAAAAAAAAAAAAAAAAAAAAAAAAAAAAAAAAAAAAAAAAAAAAAAAAAAAAAAAAAAAAAAAAAAAAAAAAAAAAAAAAAAAAAAAAAAAAAAAAAAAAAAAAAAAAAAAAAAAAAAAAAAAAAAAAAAAAAAAAAAAAAAAAAAAAAAAAAAAAAAAAAAAAAAAAAAAAAAAAAAAAAAAAAAAAAAAAAAAAAAAAAAAAAAAAAAAAAAAAAAAAAAAAAAAAAAAAAAAAAAAAAAAAAAAAAAAAAAAAAAAAAAAAAAAAAAAAAAAAAAAAAAAAAAAAAAAAAAAAAAAAAAAAAAAAAAAAAAAAAAAAAAAAAAAAAAAAAAAAAAAAAAAAAAAAAAAAAAAAAAAAAAAAAAAAAAAAAAAAAAAAAAAAAAAAAAAAAAAAAAAAAAAAAAAAAAAAAAAAAAAAAAAAAAAAAAAAAAAAAAAAAAAAAAAAAAAAAAAAAAAAAAAAAAAAAAAAAAAAAAAAAAAAAAAAAAAAAAAAAAAAAAAAAAAAAAAAAAAAAAAAAAAAAAAAAAAAAAAAAAAAAAAAAAAAAAAAAAAAAAAAAAAAAAAAAAAAAAAAAAAAAAAAAAAAAAAAAAAAAAAAAAAAAAAAAAAAAAAAAAAAAAAAAAAAAAAAAAAAAAAAAAAAAAAAAAAAAAAAAAAAAAAAAAAAAAAAAAAAAAAAAAAAAAAAAAAAAAAAAAAAAAAAAAAAAAAAAAAAAAAAAAAAAAAAAAAAAAAAAAAAAAAAAAAAAAAAAAAAAAAAAAAAAAAAAAAAAAAAAAAAAAAAAAAAAAAAAAAAAAAAAAAAAAAAAAAAAAAAAAAAAAAAAAAAAAAAAAAAAAAAAAAAAAAAAAAAAAAAAAAAAAAAAAAAAAAAAAAAAAAAAAAAAAAAAAAAAAAAAAAAAAAAAAAAAAAAAAAAAAAAAAAAAAAAAAAAAAAAAAAAAAAAAAAAAAAAAAAAAAAAAAAAAAAAAAAAAAAAAAAAAAAAAAAAAAAAAAAAAAAAAAAAAAAAAAAAAAAAAAAAAAAAAAAAAAAAAAAAAAAAAAAAAAAAAAAAAAAAAAAAAAAAAAAAAAAAAAAAAAAAAAAAAAAAAAAAAAAAAAAAAAAAAAAAAAAAAAAAAAAAAAAAAAAAAAAAAAAAAAAAAAAAAAAAAAAAAAAAAAAAAAAAAAAAAAAAAAAAAAAAAAAAAAAAAAAAAAAAAAAAAAAAAAAAAAAAAAAAAAAAAAAAAAAAAAAAAAAAAAAAAAAAAAAAAAAAAAAAAAAAAAAAAAAAAAAAAAAAAAAAAAAAAAAAAAAAAAAAAAAAAAAAAAAAAAAAAAAAAAAAAAAAAAAAAAAAAAAAAAAAAAAAAAAAAAAAAAAAAAAAAAAAAAAAAAAAAAAAAAAAAAAAAAAAAAAAAAAAAAAAAAAAAAAAAAAAAAAAAAAAAAAAAAAAAAAAAAAAAAAAAAAAAAAAAAAAAAAAAAAAAAAAAAAAAAAAAAAAAAAAAAAAAAAAAAAAAAAAAAAAAAAAAAAAAAAAAAAAAAAAAAAAAAAAAAAAAAAAAAAAAAAAAAAAAAAAAAAAAAAAAAAAAAAAAAAAAAAAAAAAAAAAAAAAAAAAAAAAAAAAAAAAAAAAAAAAAAAAAAAAAAAAAAAAAAAAAAAAAAAAAAAAAAAAAAAAAAAAAAAAAAAAAAAAAAAAAAAAAAAAAAAAAAAAAAAAAAAAAAAAAAAAAAAAAAAAAAAAAAAAAAAAAAAAAAAAAAAAAAAAAAAAAAAAAAAAAAAAAAAAAAAAAAAAAAAAAAAAAAAAAAAAAAAAAAAAAAAAAAAAAAAAAAAAAAAAAAAAAAAAAAAAAAAAAAAAAAAAAAAAAAAAAAAAAAAAAAAAAAAAAAAAAAAAAAAAAAAAAAAAAAAAAAAAAAAAAAAAAAAAAAAAAAAAAAAAAAAAAAAAAAAAAAAAAAAAAAAAAAAAAAAAAAAAAAAAAAAAAAAAAAAAAAAAAAAAAAAAAAAAAAAAAAAAAAAAAAAAAAAAAAAAAAAAAAAAAAAAAAAAAAAAAAAAAAAAAAAAAAAAAAAAAAAAAAAAAAAAAAAAAAAAAAAAAAAAAAAAAAAAAAAAAAAAAAAAAAAAAAAAAAAAAAAAAAAAAAAAAAAAAAAAAAAAAAAAAAAAAAAAAAAAAAAAAAAAAAAAAAAAAAAAAAAAAAAAAAAAAAAAAAAAAAAAAAAAAAAAAAAAAAAAAAAAAAAAAAAAAAAAAAAAAAAAAAAAAAAAAAAAAAAAAAAAAAAAAAAAAAAAAAAAAAAAAAAAAAAAAAAAAAAAAAAAAAAAAAAAAAAAAAAAAAAAAAAAAAAAAAAAAAAAAAAAAAAAAAAAAAPZYQGsQzZkJzKHXlOVtWimZdpXoQuCmatmzyA+n+lLa4qTNAPQDX4vIK792NzMl5sqmyRDhJLvD9Whv7dhijIo5+5E=</c2pa:manifest></metadata>
<path d="M128.659 96.77C134.938 99.699 121.586 112.383 97.4366 112.557C73.2876 112.732 7.81066 98.444 5.23566 93.844C2.66066 89.244 30.8676 81 30.8676 81L128.659 96.77Z" fill="#E5E5E5"></path>
<path d="M4.31464 22.0928L41.9886 36.9638L146.723 49.6738L128.89 36.9638L101.946 22.0928L5.27066 17.5088L4.31464 22.0928Z" fill="#382010"></path>
<path d="M146.723 50.2945C146.976 50.2945 147.208 50.1394 147.301 49.8984C147.404 49.6334 147.314 49.3334 147.083 49.1684L129.25 36.4584C129.231 36.4444 129.211 36.4325 129.19 36.4205L102.246 21.5494C102.163 21.5034 102.07 21.4774 101.976 21.4724L5.30048 16.8885C4.99148 16.8735 4.72548 17.0835 4.66348 17.3815L3.70746 21.9655C3.64546 22.2615 3.80646 22.5585 4.08746 22.6695L41.7615 37.5414C41.8105 37.5604 41.8625 37.5744 41.9145 37.5804L146.648 50.2904C146.673 50.2924 146.698 50.2945 146.723 50.2945ZM128.559 37.4905L144.377 48.7644L42.1435 36.3584L5.03049 21.7084L5.77148 18.1544L101.774 22.7064L128.559 37.4905Z" fill="#362116"></path>
<path d="M147.99 43.6722C148.336 43.9032 146.721 49.6732 146.721 49.6732L101.482 26.4772L4.31252 22.0922C4.31252 22.0922 5.35151 15.3982 6.50551 14.8212L9.40651 13.2052L11.2355 13.2682H11.2345C11.2345 13.2682 16.5455 8.01121 18.9685 6.16521C21.3925 4.31921 25.4315 2.93421 28.8935 2.85221C29.2775 2.84321 30.6375 2.82021 32.7465 2.78521C38.6755 2.68821 50.5455 2.50521 63.4555 2.30721C63.6705 2.24221 63.8855 2.18721 64.1035 2.14821C70.1625 1.07221 81.5745 2.03121 81.5745 2.03121C99.3405 1.76121 114.744 1.52921 114.744 1.52921C114.672 1.56221 114.597 1.60121 114.524 1.63621C115.371 1.23321 116.187 0.955208 116.946 0.857208C124.415 -0.107792 129.269 2.17321 130.323 2.73221C131.253 3.04021 132.216 3.41821 133.217 3.88321C152.374 12.7692 138.987 38.7352 147.873 43.5822M77.4375 2.09521C78.8265 2.07421 80.2085 2.05321 81.5755 2.03221C81.5755 2.03221 79.8395 1.95621 77.4375 2.09521Z" fill="#6A4A35"></path>
<path d="M146.722 50.2943C146.806 50.2943 146.891 50.2773 146.97 50.2423C147.141 50.1673 147.269 50.0203 147.319 49.8413C149.056 43.6373 148.738 43.4253 148.335 43.1573C148.328 43.1523 148.321 43.1483 148.314 43.1433C148.273 43.1023 148.226 43.0673 148.173 43.0383C144.899 41.2523 144.954 35.9613 145.018 29.8343C145.116 20.4513 145.238 8.77529 133.48 3.32129C132.514 2.87329 131.535 2.48329 130.57 2.16129C129.182 1.43429 124.307 -0.717706 116.868 0.244294C116.178 0.333294 115.439 0.553293 114.62 0.913293C113.047 0.937293 97.0213 1.17829 81.5983 1.41329C80.8113 1.34929 69.9433 0.484295 63.9973 1.5403C63.7993 1.5753 63.5913 1.62529 63.3633 1.69129C50.4863 1.88829 38.6543 2.07129 32.7383 2.16729C30.6263 2.20229 29.2653 2.22529 28.8803 2.23429C25.3183 2.31829 21.1843 3.70029 18.5943 5.67429C16.3993 7.34729 11.9773 11.6703 10.9903 12.6413L9.42929 12.5873C9.31729 12.5813 9.20429 12.6103 9.10629 12.6653L6.20529 14.2803C4.97629 14.8943 4.10729 19.3803 3.70129 21.9983C3.67429 22.1723 3.72229 22.3503 3.83429 22.4863C3.94629 22.6223 4.11029 22.7053 4.28629 22.7133L101.321 27.0923L146.439 50.2263C146.527 50.2713 146.624 50.2943 146.722 50.2943ZM147.414 44.0333C147.352 44.7333 146.857 46.8143 146.326 48.7723L101.767 25.9243C101.688 25.8833 101.601 25.8603 101.512 25.8563L5.03928 21.5023C5.51828 18.7043 6.29227 15.7303 6.79727 15.3683L9.55829 13.8313L11.2073 13.8883C11.3873 13.8943 11.5633 13.8223 11.6823 13.6993C11.9473 13.4383 17.0323 8.4213 19.3463 6.6593C21.7073 4.8603 25.6393 3.55029 28.9093 3.47329C29.2933 3.46429 30.6513 3.44129 32.7583 3.40629C38.6873 3.30929 50.5573 3.12629 63.4663 2.92829C63.5233 2.92729 63.5813 2.91829 63.6353 2.90229C63.8503 2.83729 64.0393 2.79129 64.2133 2.76029C67.7293 2.13629 73.0613 2.20429 76.8813 2.36929C76.9843 2.57729 77.1973 2.72329 77.4473 2.71529L81.5833 2.65229C81.5843 2.65229 81.5843 2.65229 81.5853 2.65229C97.3553 2.41229 111.264 2.2023 114.19 2.1583C114.365 2.2703 114.591 2.29229 114.792 2.19629C115.625 1.79929 116.377 1.55629 117.026 1.47229C124.372 0.522295 129.151 2.81129 130.034 3.27929C130.065 3.29529 130.097 3.30929 130.13 3.32029C131.066 3.63029 132.018 4.00929 132.957 4.44529C143.987 9.56129 143.875 20.3243 143.776 29.8193C143.71 36.2553 143.652 41.8243 147.414 44.0333Z" fill="#362116"></path>
<path d="M146.721 49.6724L101.483 26.4764L102.06 18.3984C102.06 18.3984 147.644 43.4414 147.991 43.6714C148.336 43.9024 146.721 49.6724 146.721 49.6724Z" fill="#3B2210"></path>
<path d="M146.722 50.2939C146.806 50.2939 146.891 50.2769 146.97 50.2419C147.141 50.1669 147.269 50.0199 147.319 49.8409C149.056 43.6369 148.738 43.4249 148.335 43.1569C147.984 42.9229 109.975 22.0399 102.359 17.8559C102.174 17.7539 101.949 17.7539 101.764 17.8549C101.578 17.9559 101.457 18.1449 101.442 18.3559L100.865 26.4339C100.847 26.6819 100.979 26.9169 101.201 27.0309L146.439 50.2269C146.527 50.2709 146.624 50.2939 146.722 50.2939ZM147.412 44.0569C147.341 44.7789 146.851 46.8359 146.326 48.7729L102.132 26.1119L102.611 19.4089C117.703 27.7009 144.487 42.4229 147.412 44.0569Z" fill="#362116"></path>
<path d="M102.059 18.3996C102.059 18.3996 7.65861 14.2456 6.50461 14.8226C5.35061 15.3996 4.31158 22.0926 4.31158 22.0926L101.482 26.4776L102.059 18.3996Z" fill="#4D2C16"></path>
<path d="M101.483 27.0984C101.807 27.0984 102.078 26.8484 102.101 26.5224L102.678 18.4444C102.69 18.2774 102.634 18.1124 102.522 17.9874C102.41 17.8624 102.253 17.7874 102.086 17.7804C101.85 17.7704 78.2131 16.7304 54.7401 15.7754C7.09407 13.8364 6.55107 14.1064 6.22707 14.2674C4.97307 14.8944 4.10509 19.3794 3.69909 21.9974C3.67209 22.1714 3.72008 22.3494 3.83208 22.4854C3.94408 22.6214 4.10808 22.7044 4.28408 22.7124L101.454 27.0974C101.464 27.0984 101.474 27.0984 101.483 27.0984ZM101.395 18.9914L100.906 25.8304L5.03707 21.5034C5.50207 18.7874 6.24508 15.9064 6.75008 15.4074C10.2061 15.0874 75.4401 17.8504 101.395 18.9914Z" fill="#362116"></path>
<path d="M101.945 18.3082C108.292 16.0002 114.062 -5.00378 133.219 3.88322C152.376 12.7692 138.989 38.7352 147.875 43.5822C132.06 34.8622 101.945 18.3082 101.945 18.3082Z" fill="#3B2210"></path>
<path d="M147.874 44.2032C148.093 44.2032 148.306 44.0862 148.419 43.8812C148.584 43.5812 148.474 43.2042 148.174 43.0392C148.161 43.0322 148.147 43.0242 148.134 43.0172C144.898 41.2112 144.953 35.9372 145.017 29.8342C145.115 20.4512 145.237 8.77519 133.479 3.32119C119.499 -3.16281 112.418 5.76919 107.248 12.2912C105.199 14.8762 103.429 17.1092 101.732 17.7262C101.503 17.8092 101.344 18.0192 101.325 18.2612C101.306 18.5042 101.432 18.7352 101.645 18.8522C101.946 19.0172 131.883 35.4732 147.53 44.1002C147.546 44.1092 147.561 44.1172 147.577 44.1262C147.672 44.1782 147.773 44.2032 147.874 44.2032ZM124.368 2.30919C126.879 2.30919 129.714 2.94119 132.957 4.44519C143.987 9.56119 143.875 20.3242 143.776 29.8192C143.729 34.3662 143.686 38.4812 144.992 41.2832C130.617 33.3622 108.282 21.0832 103.264 18.3252C104.883 17.2702 106.453 15.2892 108.22 13.0602C112.123 8.13919 116.744 2.30919 124.368 2.30919Z" fill="#362116"></path>
<path d="M140.223 39.2408C140.145 37.4878 140.164 35.6498 140.183 33.7858C140.294 23.1298 139.715 15.2818 131.21 11.3358C128.598 10.1238 126.172 9.50977 124.001 9.50977C117.868 9.50977 113.854 14.5728 110.313 19.0398C109.592 19.9488 108.9 20.8218 108.21 21.6288C115.312 25.5338 128.936 33.0258 140.223 39.2408Z" fill="#7D573E"></path>
<path d="M140.223 39.8606C140.337 39.8606 140.451 39.8297 140.55 39.7677C140.741 39.6497 140.852 39.4367 140.843 39.2127C140.766 37.4777 140.784 35.6896 140.804 33.7966C140.917 22.9016 140.314 14.8746 131.472 10.7736C128.777 9.52365 126.264 8.88965 124.002 8.88965C117.569 8.88965 113.456 14.0777 109.828 18.6547C109.107 19.5647 108.426 20.4237 107.739 21.2257C107.618 21.3677 107.567 21.5567 107.6 21.7407C107.633 21.9247 107.748 22.0836 107.911 22.1736C115.013 26.0786 128.636 33.5696 139.923 39.7846C140.017 39.8356 140.12 39.8606 140.223 39.8606ZM124.002 10.1306C126.082 10.1306 128.42 10.7256 130.95 11.8986C139.118 15.6876 139.672 23.3566 139.564 33.7786C139.549 35.2356 139.533 36.7287 139.568 38.1697C128.822 32.2537 116.225 25.3257 109.174 21.4487C109.709 20.8027 110.243 20.1286 110.802 19.4246C114.254 15.0686 118.168 10.1306 124.002 10.1306Z" fill="#362116"></path>
<path d="M9.40598 13.2061L99.059 16.3221C99.059 16.3221 110.178 1.73313 116.947 0.85813C125.429 -0.23787 130.543 2.85413 130.543 2.85413L130.541 2.85613C113.596 -2.83987 108.087 16.2081 102.059 18.3991L6.50497 14.8221L9.40598 13.2061Z" fill="#4D2C16"></path>
<path d="M102.061 19.0191C102.133 19.0191 102.205 19.0061 102.273 18.9821C104.3 18.2451 106.171 15.8851 108.338 13.1531C113.11 7.13513 119.049 -0.353868 130.345 3.44413C130.578 3.52313 130.836 3.45613 131.002 3.27313C131.127 3.13613 131.185 2.94913 131.158 2.76513C131.131 2.58113 131.025 2.41813 130.866 2.32213C130.65 2.19113 125.467 -0.867868 116.869 0.242132C110.347 1.08513 100.339 13.6621 98.7635 15.6901L9.42956 12.5851C9.31456 12.5791 9.20455 12.6081 9.10555 12.6631L6.20455 14.2781C5.96155 14.4131 5.83856 14.6941 5.90356 14.9651C5.96856 15.2361 6.20554 15.4301 6.48354 15.4401L102.038 19.0181C102.046 19.0191 102.054 19.0191 102.061 19.0191ZM122.413 1.31613C115.378 2.27713 110.889 7.93913 107.366 12.3821C105.36 14.9111 103.622 17.1031 101.958 17.7741L8.74654 14.2841L9.55856 13.8321L99.0385 16.9421C99.2435 16.9501 99.4316 16.8581 99.5536 16.6981C99.6636 16.5541 110.593 2.30513 117.028 1.47313C119.02 1.21513 120.824 1.19713 122.413 1.31613Z" fill="#362116"></path>
<path d="M32.7481 2.78627C49.6391 2.51127 114.746 1.53027 114.746 1.53027C108.017 4.57127 99.0601 16.3223 99.0601 16.3223L16.5481 13.4543C20.7391 7.03927 28.3201 3.76227 32.7481 2.78627Z" fill="#8F6347"></path>
<path d="M99.0601 16.9422C99.2531 16.9422 99.4361 16.8522 99.5541 16.6982C99.6431 16.5822 108.494 5.03716 115.002 2.09616C115.268 1.97616 115.415 1.68615 115.353 1.40015C115.291 1.11415 115.039 0.910156 114.746 0.910156C114.697 0.910156 49.3751 1.89616 32.7381 2.16616C32.6961 2.16716 32.6551 2.17216 32.6141 2.18116C27.5261 3.30216 20.1281 6.83815 16.0281 13.1152C15.9051 13.3022 15.8941 13.5412 15.9971 13.7402C16.1001 13.9392 16.3021 14.0672 16.5261 14.0742L99.0381 16.9422C99.0461 16.9422 99.0531 16.9422 99.0601 16.9422ZM112.294 2.18816C106.442 5.99516 99.9931 14.1082 98.7631 15.6912L17.7081 12.8742C21.6821 7.50616 28.2191 4.43415 32.8211 3.40715C47.9031 3.16015 100.289 2.36916 112.294 2.18816Z" fill="#362116"></path>
<path d="M11.238 13.2691C11.238 13.2691 16.549 8.01213 18.972 6.16613C21.396 4.31913 25.435 2.93513 28.897 2.85313C29.281 2.84413 30.641 2.82113 32.75 2.78613C28.322 3.76113 20.741 7.03813 16.55 13.4531L11.238 13.2691Z" fill="#4D2C16"></path>
<path d="M16.5498 14.075C16.7588 14.075 16.9549 13.97 17.0699 13.794C20.9659 7.83001 28.0239 4.46401 32.8839 3.39301C33.1949 3.32501 33.4039 3.03102 33.3669 2.71502C33.3299 2.39902 33.0598 2.16602 32.7408 2.16602C30.6288 2.20102 29.2678 2.22401 28.8828 2.23301C25.3208 2.31701 21.1868 3.69902 18.5968 5.67302C16.1688 7.52302 11.0199 12.613 10.8019 12.829C10.6259 13.003 10.5698 13.265 10.6608 13.496C10.7508 13.727 10.9698 13.882 11.2168 13.89L16.5288 14.075C16.5358 14.074 16.5428 14.075 16.5498 14.075ZM28.4168 3.49401C24.0998 5.22201 19.3028 8.28801 16.2258 12.821L12.7078 12.699C14.3708 11.084 17.6268 7.97102 19.3478 6.66002C21.5908 4.95102 25.2528 3.68301 28.4168 3.49401Z" fill="#362116"></path>
<path d="M108.067 6.73315C108.407 6.73315 108.684 6.45915 108.687 6.11915C108.69 5.77615 108.415 5.49615 108.072 5.49215L26.7025 4.70215C26.3525 4.70815 26.0795 4.97415 26.0755 5.31715C26.0725 5.66015 26.3475 5.94015 26.6895 5.94415L108.059 6.73515C108.063 6.73315 108.065 6.73315 108.067 6.73315Z" fill="#362116"></path>
<path d="M103.157 11.53C103.495 11.53 103.772 11.259 103.777 10.92C103.783 10.577 103.509 10.295 103.167 10.289L20.6512 8.88996C20.3202 8.87896 20.0263 9.15696 20.0203 9.49996C20.0143 9.84296 20.2872 10.125 20.6302 10.131L103.146 11.53C103.15 11.53 103.154 11.53 103.157 11.53Z" fill="#362116"></path>
<path d="M81.5781 2.03223C81.5781 2.03223 69.2881 1.49223 64.8731 5.90623C60.4591 10.3202 59.3381 14.9412 59.3381 14.9412L53.1881 14.7272C53.1881 14.7272 58.0471 3.22623 64.1061 2.14923C70.1661 1.07323 81.5781 2.03223 81.5781 2.03223Z" fill="#4D2C16"></path>
<path d="M59.339 15.5623C59.624 15.5623 59.873 15.3673 59.942 15.0893C59.953 15.0443 61.087 10.5723 65.313 6.3463C69.482 2.1773 81.431 2.6483 81.552 2.6533C81.883 2.6703 82.177 2.4103 82.198 2.0733C82.219 1.7363 81.967 1.4433 81.631 1.4153C81.162 1.3763 70.067 0.4623 63.999 1.5403C57.681 2.6633 52.822 14.0053 52.618 14.4873C52.539 14.6753 52.557 14.8903 52.667 15.0633C52.777 15.2363 52.964 15.3423 53.168 15.3493L59.317 15.5633C59.324 15.5623 59.332 15.5623 59.339 15.5623ZM71.33 2.2633C68.65 2.8563 66.062 3.8413 64.435 5.4673C60.738 9.1643 59.296 12.9703 58.876 14.3033L54.138 14.1383C55.372 11.5263 59.476 3.6013 64.215 2.7603C66.191 2.4103 68.77 2.2803 71.33 2.2633Z" fill="#362116"></path>
<path d="M140.223 31.5997C140.441 31.5997 140.653 31.4847 140.766 31.2797C140.932 30.9797 140.824 30.6017 140.525 30.4357L113.239 15.2937C112.938 15.1277 112.561 15.2357 112.395 15.5347C112.229 15.8347 112.337 16.2127 112.636 16.3787L139.922 31.5217C140.018 31.5747 140.121 31.5997 140.223 31.5997Z" fill="#362116"></path>
<path d="M139.829 24.9964C140.037 24.9964 140.24 24.8924 140.357 24.7024C140.537 24.4104 140.447 24.0284 140.155 23.8484L118.659 10.5644C118.368 10.3844 117.985 10.4744 117.805 10.7664C117.625 11.0584 117.715 11.4404 118.007 11.6204L139.503 24.9044C139.605 24.9664 139.717 24.9964 139.829 24.9964Z" fill="#362116"></path>
<path d="M59.3477 16.8003L58.4496 25.8773L46.1937 25.3603L46.8317 16.3223L59.3477 16.8003Z" fill="#6A4A35"></path>
<path d="M58.4517 26.4973C58.7687 26.4973 59.0377 26.2563 59.0687 25.9373L59.9657 16.8603C59.9827 16.6903 59.9287 16.5203 59.8157 16.3913C59.7037 16.2623 59.5427 16.1853 59.3717 16.1793L46.8557 15.7013C46.5197 15.6953 46.2367 15.9433 46.2127 16.2773L45.5747 25.3153C45.5627 25.4823 45.6187 25.6473 45.7307 25.7723C45.8427 25.8973 45.9997 25.9713 46.1677 25.9783L58.4237 26.4953C58.4337 26.4973 58.4427 26.4973 58.4517 26.4973ZM58.6657 17.3953L57.8907 25.2323L46.8577 24.7673L47.4087 16.9653L58.6657 17.3953Z" fill="#362116"></path>
<path d="M0.621643 40.3259L41.9886 36.9629L146.723 46.9489V49.6729L97.5606 50.2499L0.621643 40.3259Z" fill="#382010"></path>
<path d="M97.5617 50.8709C97.5637 50.8709 97.5668 50.8709 97.5688 50.8709L146.731 50.2939C147.071 50.2899 147.344 50.0129 147.344 49.6729V46.9479C147.344 46.6279 147.101 46.3609 146.782 46.3299L42.0478 36.3449C42.0118 36.3409 41.9748 36.3409 41.9388 36.3439L0.571747 39.7059C0.251747 39.7319 0.0047395 39.9969 0.0017395 40.3179C-0.0012605 40.6389 0.239746 40.9089 0.558746 40.9419L97.4977 50.8669C97.5197 50.8699 97.5407 50.8709 97.5617 50.8709ZM146.103 49.0599L97.5898 49.6289L7.40875 40.3959L41.9847 37.5859L146.103 47.5119V49.0599Z" fill="#362116"></path>
<path d="M144.631 56.5034C140.729 69.0284 132.424 94.6434 128.951 97.3354C120.757 99.5284 99.4077 105.182 92.7137 104.836C92.7137 104.836 17.4707 90.4114 14.5857 89.1414C11.7007 87.8724 5.93064 68.1384 5.23764 64.0984C4.74164 61.2044 2.88365 53.3944 1.65665 46.9484C1.17165 44.3974 0.784643 42.0594 0.621643 40.3254C1.54464 40.2104 81.3696 48.4744 97.5606 50.2504C98.3686 50.0194 146.723 49.6734 146.723 49.6734C146.723 49.6734 145.915 52.3804 144.631 56.5034Z" fill="#6A4A35"></path>
<path d="M93.3359 105.472C100.947 105.473 122.041 99.827 129.112 97.935C129.192 97.914 129.266 97.877 129.332 97.826C132.862 95.09 140.804 70.877 145.224 56.688C146.495 52.608 147.31 49.878 147.318 49.851C147.374 49.663 147.338 49.458 147.22 49.301C147.102 49.144 146.922 49.039 146.719 49.053C135.738 49.132 100.685 49.399 97.5949 49.63C83.0899 48.04 1.63388 39.56 0.544876 39.71C0.211876 39.752 -0.027109 40.05 0.00389099 40.384C0.153891 41.979 0.49589 44.164 1.04689 47.065C1.70489 50.524 2.52989 54.307 3.25789 57.644C3.86989 60.45 4.3979 62.873 4.6259 64.204C5.1159 67.064 10.8999 88.198 14.3349 89.71C17.2509 90.993 89.5209 104.857 92.5969 105.446C92.6249 105.451 92.6529 105.455 92.6819 105.456C92.8869 105.467 93.1059 105.472 93.3359 105.472ZM128.661 96.77C109.38 101.927 97.3139 104.431 92.7889 104.218C66.7759 99.231 17.0669 89.554 14.8359 88.573C12.4279 87.514 6.6159 68.46 5.8499 63.994C5.6169 62.636 5.08587 60.2 4.47087 57.38C3.74487 54.05 2.92189 50.276 2.26689 46.833C1.80189 44.39 1.48887 42.468 1.31587 40.99C9.15387 41.632 81.0429 49.064 97.4929 50.868C97.5589 50.876 97.6249 50.872 97.6899 50.858C99.0989 50.677 132.147 50.4 145.886 50.3C145.555 51.396 144.902 53.544 144.038 56.319C136.793 79.582 131.063 94.647 128.661 96.77Z" fill="#362116"></path>
<path d="M97.5645 50.2498C98.3725 50.0188 146.727 49.6729 146.727 49.6729C146.727 49.6729 145.919 52.3799 144.635 56.5029L96.4336 58.5288C96.9176 53.5358 97.3205 50.3198 97.5645 50.2498Z" fill="#3B2210"></path>
<path d="M96.4319 59.15C96.4409 59.15 96.4489 59.15 96.4579 59.149L144.658 57.123C144.92 57.112 145.146 56.938 145.224 56.688C146.495 52.608 147.31 49.878 147.318 49.851C147.374 49.663 147.338 49.458 147.22 49.301C147.102 49.144 146.922 49.039 146.719 49.053C135.356 49.134 98.2159 49.418 97.3909 49.654C96.8649 49.804 96.6469 49.868 95.8129 58.47C95.7959 58.649 95.8569 58.826 95.9799 58.956C96.0989 59.08 96.2619 59.15 96.4319 59.15ZM144.17 55.902L97.1189 57.88C97.5959 53.053 97.8599 51.399 97.9909 50.837C101.608 50.656 132.677 50.397 145.888 50.301C145.574 51.34 144.97 53.329 144.17 55.902Z" fill="#362116"></path>
<path d="M36.0515 50.7414C27.8395 49.8614 7.64151 47.6154 1.65851 46.9494C1.17351 44.3984 0.786505 42.0604 0.623505 40.3264C1.5465 40.2114 81.3715 48.4754 97.5625 50.2514L96.8195 58.6224C91.0875 57.7414 78.1485 55.7884 74.7415 55.5884C70.3265 55.3284 45.7455 51.7794 36.0515 50.7414Z" fill="#4D2C16"></path>
<path d="M96.8201 59.242C96.9581 59.242 97.0931 59.196 97.2031 59.11C97.3381 59.004 97.4231 58.847 97.4381 58.676L98.1811 50.305C98.2111 49.968 97.9661 49.67 97.6301 49.633C83.3331 48.065 2.92011 39.708 0.587112 39.708C0.569112 39.708 0.555097 39.708 0.546097 39.71C0.213097 39.752 -0.0258883 40.05 0.00511169 40.384C0.155112 41.979 0.497111 44.164 1.04811 47.065C1.09911 47.332 1.3181 47.536 1.5891 47.566C9.3171 48.426 28.1401 50.518 35.9851 51.358C40.4951 51.841 48.2131 52.866 55.6761 53.857C64.2371 54.994 72.3241 56.067 74.7041 56.208C78.0991 56.407 91.2341 58.392 96.7241 59.236C96.7571 59.24 96.7881 59.242 96.8201 59.242ZM96.8911 50.801L96.2601 57.908C90.4281 57.014 78.0961 55.163 74.7781 54.968C72.4441 54.831 64.3791 53.76 55.8411 52.626C48.3701 51.634 40.6451 50.608 36.1191 50.123C28.4271 49.299 10.1731 47.271 2.1841 46.382C1.7661 44.152 1.48111 42.375 1.31911 40.989C9.06411 41.624 79.3571 48.889 96.8911 50.801Z" fill="#362116"></path>
<path d="M96.4318 58.5289L103.21 58.2439L99.7558 95.9209L128.059 91.2469C128.059 91.2469 131.867 82.1589 134.724 74.1959C136.97 67.9339 139.323 59.8539 140.225 56.6879L144.633 56.5029C140.731 69.0279 132.426 94.6429 128.953 97.3349C120.759 99.5279 99.4098 105.182 92.7158 104.836C93.7628 91.0679 95.3148 70.0549 96.4318 58.5289Z" fill="#331D0E"></path>
<path d="M93.3378 105.472C100.95 105.472 122.043 99.8269 129.114 97.9349C129.194 97.9139 129.268 97.8769 129.334 97.8259C130.849 96.6519 134.929 89.7459 145.226 56.6879C145.286 56.4949 145.249 56.2849 145.125 56.1249C145.002 55.9649 144.81 55.8709 144.607 55.8829L140.199 56.0679C139.932 56.0789 139.702 56.2599 139.628 56.5179C138.723 59.6929 136.376 67.7509 134.139 73.9869C131.618 81.0149 128.314 89.0169 127.618 90.6909L100.447 95.1779L103.828 58.3009C103.844 58.1229 103.783 57.9459 103.659 57.8169C103.536 57.6869 103.362 57.6189 103.184 57.6249L96.4058 57.9099C96.0968 57.9229 95.8438 58.1619 95.8138 58.4699C94.8418 68.4939 93.5608 85.4359 92.5308 99.0499L92.0958 104.79C92.0828 104.957 92.1378 105.121 92.2488 105.247C92.3598 105.373 92.5158 105.448 92.6828 105.457C92.8898 105.467 93.1078 105.472 93.3378 105.472ZM128.663 96.7699C110.172 101.715 98.3148 104.223 93.3848 104.231L93.7698 99.1419C94.7808 85.7749 96.0338 69.1969 96.9978 59.1259L102.527 58.8939L99.1378 95.8639C99.1198 96.0549 99.1928 96.2439 99.3328 96.3749C99.4738 96.5059 99.6668 96.5629 99.8568 96.5329L128.159 91.8589C128.37 91.8239 128.548 91.6829 128.63 91.4869C128.668 91.3959 132.477 82.2929 135.306 74.4059C137.46 68.4009 139.712 60.7279 140.697 57.2899L143.777 57.1609C136.656 79.9449 131.036 94.6719 128.663 96.7699Z" fill="#362116"></path>
<path d="M128.058 91.2465L99.7547 95.9205L103.209 58.2435L140.223 56.6875C139.32 59.8545 136.968 67.9335 134.722 74.1955C131.867 82.1585 128.058 91.2465 128.058 91.2465Z" fill="#7D573E"></path>
<path d="M99.7558 96.5419C99.7898 96.5419 99.8228 96.5389 99.8568 96.5339L128.159 91.8599C128.37 91.8249 128.548 91.6839 128.63 91.4879C128.668 91.3969 132.477 82.2939 135.306 74.4069C137.555 68.1359 139.911 60.0469 140.82 56.8589C140.875 56.6669 140.834 56.4609 140.711 56.3049C140.588 56.1489 140.397 56.0609 140.198 56.0689L103.184 57.6249C102.874 57.6379 102.62 57.8789 102.592 58.1879L99.1378 95.8649C99.1198 96.0559 99.1928 96.2449 99.3328 96.3759C99.4488 96.4829 99.6008 96.5419 99.7558 96.5419ZM127.619 90.6909L100.448 95.1779L103.78 58.8419L139.392 57.3449C138.359 60.9359 136.203 68.2369 134.14 73.9869C131.619 81.0139 128.315 89.0169 127.619 90.6909Z" fill="#362116"></path>
<path d="M15.7994 84.2375L9.41043 47.8115C17.9734 48.7625 30.1304 50.1075 36.0524 50.7425C45.7464 51.7815 70.3274 55.3295 74.7414 55.5895C76.8784 55.7155 82.7664 56.5305 88.2734 57.3385L85.5604 95.4045L15.7994 84.2375Z" fill="#8F6347"></path>
<path d="M85.561 96.0231C85.7 96.0231 85.8359 95.9761 85.9469 95.8891C86.0829 95.7811 86.1679 95.6201 86.1799 95.4471L88.893 57.3801C88.916 57.0561 88.685 56.7691 88.364 56.7221C81.152 55.6641 76.5809 55.0741 74.7779 54.9681C72.4439 54.8311 64.379 53.7601 55.841 52.6261C48.3699 51.6341 40.6449 50.6081 36.1189 50.1231C30.2589 49.4951 18.398 48.1831 9.47895 47.1931C9.28295 47.1721 9.09195 47.2431 8.95795 47.3851C8.82395 47.5271 8.76496 47.7251 8.79896 47.9171L15.1879 84.3431C15.2339 84.6041 15.4399 84.8071 15.7009 84.8481L85.462 96.0131C85.495 96.0201 85.528 96.0231 85.561 96.0231ZM87.614 57.8671L84.9899 94.6821L16.3339 83.6941L10.1639 48.5191C18.9779 49.4971 30.3029 50.7501 35.9859 51.3591C40.4959 51.8421 48.2139 52.8671 55.6769 53.8581C64.2379 54.9951 72.3249 56.0681 74.7049 56.2091C76.3999 56.3071 80.858 56.8801 87.614 57.8671Z" fill="#362116"></path>
<path d="M9.4064 47.8103L15.7954 84.2363L85.5574 95.4013L88.2704 57.3353C91.5424 57.8153 94.6794 58.2923 96.8164 58.6203L92.7124 104.834C92.7124 104.834 17.4694 90.4093 14.5844 89.1393C11.6994 87.8703 5.92939 68.1363 5.23639 64.0963C4.74039 61.2023 2.8824 53.3923 1.6554 46.9463C3.3234 47.1343 6.0974 47.4433 9.4064 47.8103Z" fill="#472914"></path>
<path d="M92.713 105.457C92.847 105.457 92.978 105.414 93.087 105.332C93.227 105.226 93.316 105.066 93.331 104.892L97.435 58.678C97.464 58.352 97.235 58.059 96.911 58.01C94.843 57.692 91.6811 57.211 88.3611 56.724C88.1891 56.698 88.016 56.746 87.882 56.854C87.747 56.962 87.664 57.121 87.652 57.294L84.987 94.684L16.331 83.696L10.018 47.705C9.97004 47.434 9.74904 47.226 9.47504 47.196L1.72403 46.334C1.52803 46.312 1.33304 46.384 1.20004 46.529C1.06604 46.674 1.00905 46.873 1.04605 47.067C1.70405 50.526 2.52905 54.309 3.25705 57.646C3.86905 60.452 4.39703 62.875 4.62503 64.206C5.11503 67.066 10.8991 88.2 14.3351 89.712C17.2511 90.995 89.521 104.859 92.596 105.448C92.635 105.453 92.674 105.457 92.713 105.457ZM96.147 59.147L92.156 104.098C65.978 99.077 17.0471 89.547 14.8351 88.574C12.4271 87.515 6.61503 68.461 5.84903 63.995C5.61603 62.637 5.08503 60.201 4.47003 57.381C3.80103 54.316 3.05105 50.874 2.42505 47.66L8.87704 48.377L15.186 84.345C15.232 84.606 15.438 84.809 15.699 84.85L85.461 96.015C85.632 96.042 85.808 95.997 85.945 95.889C86.081 95.781 86.166 95.62 86.178 95.447L88.843 58.049C91.622 58.457 94.244 58.855 96.147 59.147Z" fill="#362116"></path>
<path d="M88.275 57.957C88.584 57.957 88.852 57.726 88.89 57.411C88.931 57.071 88.689 56.762 88.348 56.721L9.48403 47.195C9.14303 47.154 8.83503 47.396 8.79403 47.737C8.75303 48.077 8.99502 48.386 9.33602 48.428L88.2 57.954C88.225 57.956 88.25 57.957 88.275 57.957Z" fill="#362116"></path>
<path d="M103.209 58.8648C103.218 58.8648 103.227 58.8648 103.235 58.8638L140.249 57.3078C140.591 57.2938 140.857 57.0038 140.843 56.6618C140.829 56.3198 140.542 56.0548 140.197 56.0678L103.183 57.6238C102.841 57.6378 102.575 57.9278 102.589 58.2698C102.604 58.6038 102.879 58.8648 103.209 58.8648Z" fill="#362116"></path>
<path d="M87.3451 67.4553C87.6511 67.4553 87.9172 67.2293 87.9592 66.9183C88.0052 66.5783 87.7671 66.2663 87.4271 66.2203L11.0162 55.8893C10.6742 55.8443 10.3642 56.0813 10.3182 56.4213C10.2722 56.7613 10.5101 57.0733 10.8501 57.1193L87.2612 67.4503C87.2892 67.4533 87.3171 67.4553 87.3451 67.4553Z" fill="#362116"></path>
<path d="M86.4506 78.2534C86.7556 78.2534 87.0226 78.0274 87.0646 77.7174C87.1106 77.3774 86.8736 77.0644 86.5336 77.0184L12.8036 66.9284C12.4646 66.8834 12.1516 67.1193 12.1046 67.4593C12.0576 67.7993 12.2956 68.1124 12.6356 68.1584L86.3656 78.2484C86.3936 78.2524 86.4226 78.2534 86.4506 78.2534Z" fill="#362116"></path>
<path d="M85.923 87.0384C86.225 87.0384 86.489 86.8184 86.536 86.5104C86.587 86.1714 86.354 85.8554 86.015 85.8044L14.374 74.9704C14.036 74.9174 13.719 75.1524 13.668 75.4914C13.617 75.8304 13.85 76.1464 14.189 76.1974L85.83 87.0314C85.861 87.0354 85.892 87.0384 85.923 87.0384Z" fill="#362116"></path>
<path d="M50.9609 52.6069V61.5609L48.167 63.9839L40.55 62.7149L38.1849 59.5409L38.033 50.9639L50.9609 52.6069Z" fill="#6A4A35"></path>
<path d="M48.1671 64.6045C48.3151 64.6045 48.46 64.5515 48.574 64.4525L51.368 62.0285C51.504 61.9105 51.582 61.7395 51.582 61.5595V52.6055C51.582 52.2925 51.35 52.0295 51.04 51.9895L38.112 50.3465C37.933 50.3245 37.753 50.3805 37.619 50.5005C37.485 50.6205 37.41 50.7935 37.413 50.9735L37.564 59.5505C37.566 59.6805 37.609 59.8065 37.687 59.9105L40.053 63.0845C40.149 63.2135 40.291 63.2995 40.449 63.3255L48.066 64.5945C48.099 64.6015 48.1331 64.6045 48.1671 64.6045ZM50.34 61.2775L47.981 63.3245L40.899 62.1445L38.802 59.3315L38.6671 51.6715L50.341 53.1545V61.2775H50.34Z" fill="#362116"></path>
<path d="M102.419 67.4555C102.43 67.4555 102.441 67.4555 102.452 67.4545L137.787 65.6165C138.129 65.5985 138.392 65.3065 138.374 64.9645C138.356 64.6225 138.069 64.3535 137.722 64.3775L102.387 66.2155C102.045 66.2335 101.782 66.5255 101.8 66.8675C101.817 67.1985 102.091 67.4555 102.419 67.4555Z" fill="#362116"></path>
<path d="M101.944 76.926C101.957 76.926 101.971 76.926 101.984 76.925L134.759 74.817C135.101 74.795 135.361 74.5 135.338 74.158C135.316 73.816 135.019 73.561 134.679 73.579L101.904 75.687C101.562 75.709 101.302 76.004 101.324 76.346C101.347 76.673 101.62 76.926 101.944 76.926Z" fill="#362116"></path>
<path d="M100.713 86.0681C100.733 86.0681 100.754 86.067 100.775 86.065L131.686 83.0251C132.027 82.9911 132.276 82.688 132.243 82.347C132.209 82.006 131.906 81.757 131.565 81.79L100.654 84.83C100.313 84.863 100.064 85.167 100.097 85.508C100.128 85.829 100.398 86.0681 100.713 86.0681Z" fill="#362116"></path>
<path d="M45.6914 56.6881C45.6914 55.8911 45.0454 55.2451 44.2484 55.2451C43.4514 55.2451 42.8054 55.8911 42.8054 56.6881C42.8054 57.4851 43.4514 58.1311 44.2484 58.1311C45.0454 58.1311 45.6914 57.4851 45.6914 56.6881Z" fill="#331D0E"></path>
<path d="M44.2485 58.752C45.3865 58.752 46.3125 57.826 46.3125 56.688C46.3125 55.55 45.3865 54.625 44.2485 54.625C43.1105 54.625 42.1845 55.551 42.1845 56.688C42.1845 57.826 43.1105 58.752 44.2485 58.752ZM44.2485 55.866C44.7015 55.866 45.0705 56.235 45.0705 56.688C45.0705 57.142 44.7015 57.511 44.2485 57.511C43.7945 57.511 43.4265 57.142 43.4265 56.688C43.4265 56.235 43.7945 55.866 44.2485 55.866Z" fill="#362116"></path>
</svg>